PathFileType	4	(X/Y/Z)	C:/Users/opensim2020/Desktop/walking_exp_matlab/subject06_walking18_straight_01.trc																																																																																																																																											
DataRate	CameraRate	NumFrames	NumMarkers	Units	OrigDataRate	OrigDataStartFrame	OrigNumFrames																																																																																																																																							
100	100	6	47	mm	100	1216	396																																																																																																																																							
Frame#	Time	LFHD			RFHD			LBHD			RBHD			C7			T10			CLAV			STRN			RBAK			LSHO			LUPA			LELB			LFRM			LWRA			LWRB			LFIN			RSHO			RUPA			RELB			RFRM			RWRA			RWRB			RFIN			LASI			RASI			LPSI			RPSI			LTHI			LKNE			LTIB			LANK			LHEE			LTOE			RTHI			RKNE			RTIB			RANK			RHEE			RTOE			*39			*40			*41			*42			*43			*44			*45			*46		
		X1	Y1	Z1	X2	Y2	Z2	X3	Y3	Z3	X4	Y4	Z4	X5	Y5	Z5	X6	Y6	Z6	X7	Y7	Z7	X8	Y8	Z8	X9	Y9	Z9	X10	Y10	Z10	X11	Y11	Z11	X12	Y12	Z12	X13	Y13	Z13	X14	Y14	Z14	X15	Y15	Z15	X16	Y16	Z16	X17	Y17	Z17	X18	Y18	Z18	X19	Y19	Z19	X20	Y20	Z20	X21	Y21	Z21	X22	Y22	Z22	X23	Y23	Z23	X24	Y24	Z24	X25	Y25	Z25	X26	Y26	Z26	X27	Y27	Z27	X28	Y28	Z28	X29	Y29	Z29	X30	Y30	Z30	X31	Y31	Z31	X32	Y32	Z32	X33	Y33	Z33	X34	Y34	Z34	X35	Y35	Z35	X36	Y36	Z36	X37	Y37	Z37	X38	Y38	Z38	X39	Y39	Z39	X40	Y40	Z40	X41	Y41	Z41	X42	Y42	Z42	X43	Y43	Z43	X44	Y44	Z44	X45	Y45	Z45	X46	Y46	Z46	X47	Y47	Z47
																																																																																																																																														
199	1.98	272.98865	1651.29602	1368.96033	279.99118	1640.27783	1500.58887	141.11093	1594.08728	1375.63477	148.92789	1588.40063	1505.10986	144.59911	1438.99072	1436.41162	103.25764	1110.11914	1448.09412	252.81966	1360.53369	1426.40173	288.23007	1183.89221	1420.45081	74.58115	1271.07642	1525.35181	180.23766	1393.0249	1270.44312	129.12758	1198.59229	1203.47205	98.0843	1090.33203	1197.0116	88.90995	939.54517	1176.89478	129.19453	815.96906	1215.73999	64.60726	822.54541	1183.93115	88.0129	734.62933	1182.70959	225.01454	1393.95605	1590.04932	212.47972	1193.04846	1679.29517	236.04074	1072.86987	1687.65918	271.56213	957.16919	1696.14832	345.19171	830.15985	1647.84119	300.14798	822.60107	1696.51111	347.5679	752.79272	1688.38684	281.71893	950.63409	1338.18677	274.12906	952.86926	1557.51697	122.22021	975.56561	1359.36572	122.63857	979.13452	1528.40186	270.8063	641.28253	1270.42957	310.97015	486.8725	1300.34143	340.83029	233.22937	1304.84985	386.29425	67.44008	1344.70154	355.29257	49.58955	1395.44617	532.38428	58.71777	1334.04675	175.87872	619.25549	1600.83313	154.56075	494.09149	1579.26306	20.91646	258.22076	1571.78235	-56.70508	87.2607	1524.06848	-104.41631	72.31074	1483.17004	89.33712	35.21621	1508.97046	174.97675	1687.60583	1433.44873	NaN	NaN	NaN	NaN	NaN	NaN	NaN	NaN	NaN	NaN	NaN	NaN	NaN	NaN	NaN	NaN	NaN	NaN	NaN	NaN	NaN
200	1.99	280.01108	1651.54236	1366.7771	286.92868	1640.80261	1498.40149	148.26932	1593.97729	1373.44958	156.03239	1588.56567	1502.98096	152.12202	1439.31445	1434.47107	110.73267	1110.33179	1446.79517	260.25629	1360.74731	1424.8324	295.7204	1184.05615	1419.16907	81.93305	1271.23584	1523.4054	188.21111	1392.55713	1268.50928	137.32961	1197.78442	1202.03821	106.30622	1089.50183	1195.58765	97.19531	938.60986	1175.86902	137.29337	815.08734	1215.14233	72.71599	821.54767	1183.37451	96.42684	733.79938	1182.17627	232.20068	1394.19568	1588.60461	218.87086	1193.14624	1677.72595	242.08571	1072.88599	1685.93591	277.21298	957.02637	1694.54309	350.07809	829.58307	1646.48035	305.01297	822.30701	1695.10889	352.15784	752.39105	1687.18811	289.53525	951.10388	1336.98047	281.82584	952.61163	1556.26526	129.7849	976.49231	1358.0968	130.34727	979.14838	1527.01196	277.12582	642.12805	1268.93286	315.23779	486.84094	1298.54028	343.96503	233.05412	1303.43628	388.07666	67.07413	1344.02197	356.38416	50.77629	1395.14856	534.09851	55.02557	1333.53174	183.06276	618.97186	1599.50366	161.71861	493.7207	1578.00793	25.0266	259.47607	1571.35632	-55.40532	89.72268	1524.4541	-103.48772	75.54492	1483.67444	89.52319	35.08453	1509.17603	181.86928	1687.70801	1431.07703	NaN	NaN	NaN	NaN	NaN	NaN	NaN	NaN	NaN	NaN	NaN	NaN	NaN	NaN	NaN	NaN	NaN	NaN	NaN	NaN	NaN
201	2	287.10962	1651.84399	1364.55115	293.93661	1641.47925	1496.1875	155.47371	1594.06494	1371.26819	163.17941	1588.94324	1500.8147	159.73813	1439.69519	1432.47119	118.17486	1110.79907	1445.54871	267.75089	1361.15332	1423.27747	303.19031	1184.47314	1417.72705	89.25875	1271.78369	1521.63293	196.22762	1392.41919	1266.64392	145.7737	1197.26282	1200.60864	114.7813	1088.95947	1194.29761	105.68092	937.98096	1174.90588	145.86153	814.58813	1214.45813	81.29454	821.02136	1182.46814	105.11308	733.22974	1181.52417	239.51457	1394.75708	1587.08325	225.1956	1193.75415	1676.15149	248.53351	1073.34778	1684.27905	282.73987	957.22339	1692.95789	354.81882	829.26831	1645.11108	309.55032	822.49249	1693.8877	356.76199	752.37329	1686.35583	297.34833	952.00269	1335.67041	289.60977	952.62274	1554.79053	137.28932	977.5238	1357.00708	138.18059	979.34222	1525.74829	282.89334	643.12372	1267.72766	320.07245	487.11328	1296.11243	346.63556	232.77345	1302.27209	389.24426	66.52769	1343.4696	356.72607	51.7574	1394.85205	535.41919	51.31854	1333.43384	190.59796	618.81793	1598.1593	169.18771	493.59268	1576.85266	29.35311	261.1062	1570.95056	-54.04417	92.59853	1524.99292	-102.31416	79.21962	1484.34888	89.4617	35.03139	1509.14343	188.82588	1687.99561	1428.72546	NaN	NaN	NaN	NaN	NaN	NaN	NaN	NaN	NaN	NaN	NaN	NaN	NaN	NaN	NaN	NaN	NaN	NaN	NaN	NaN	NaN
202	2.01	294.25244	1652.35535	1362.30078	301.03052	1642.28162	1493.96521	162.7569	1594.28271	1369.10022	170.4028	1589.50146	1498.61804	167.15176	1440.20398	1430.5929	125.50666	1111.58203	1444.30945	275.28806	1361.74841	1421.74231	310.68787	1185.02026	1416.25586	96.85256	1272.50293	1519.93799	204.21173	1392.69275	1264.78601	154.48587	1197.1604	1199.06384	123.66943	1088.77612	1192.93872	114.59827	937.71765	1173.76233	154.731	814.41193	1213.74976	90.48431	820.81134	1181.52014	114.07248	733.04755	1180.74536	246.93697	1395.63696	1585.39551	231.6364	1194.50415	1674.10364	254.61119	1074.07043	1682.31836	288.23834	957.78467	1691.28931	359.46088	829.26355	1643.72021	314.16788	822.76556	1692.32251	360.4852	752.30646	1684.94629	304.92087	953.18658	1334.12048	297.50278	952.88434	1553.12769	144.7908	978.69257	1356.04883	146.07393	979.66559	1524.54175	288.56491	643.89948	1265.88611	324.63782	487.35751	1294.20117	349.04242	232.6754	1301.3335	390.13535	66.16528	1343.31787	357.39777	51.99828	1394.42273	536.4162	48.85939	1333.59753	198.4492	618.89838	1596.76758	177.01398	493.67178	1575.73401	33.96169	263.02646	1570.75195	-52.21925	95.74232	1525.6687	-100.9385	83.41613	1485.27612	89.98127	34.95481	1508.75208	195.81665	1688.45593	1426.33276	NaN	NaN	NaN	NaN	NaN	NaN	NaN	NaN	NaN	NaN	NaN	NaN	NaN	NaN	NaN	NaN	NaN	NaN	NaN	NaN	NaN
203	2.02	301.42102	1653.0835	1359.99988	308.15378	1643.24695	1491.7218	169.99031	1594.72888	1366.92896	177.66292	1590.24451	1496.44714	174.56479	1440.86963	1428.66455	133.11079	1112.50146	1442.96973	282.82303	1362.53174	1419.98157	318.2587	1185.76282	1414.72656	104.6112	1273.42029	1518.2749	212.2094	1393.2804	1262.94543	163.17346	1197.3468	1197.59399	132.69725	1088.90454	1191.53894	124.00754	937.82794	1172.58167	163.9928	814.64148	1212.79944	99.79276	821.05066	1180.3645	123.57442	733.18036	1179.72583	254.43959	1396.79419	1583.64478	238.15674	1195.7157	1672.32092	260.97247	1075.17358	1680.51733	293.33658	958.61438	1689.52661	363.93613	829.48059	1642.37683	318.56549	823.39868	1690.88757	364.44818	752.68201	1683.80322	312.46854	954.50751	1332.32141	305.39182	953.40631	1551.36145	152.01839	980.09644	1355.07605	154.01654	980.32257	1523.32593	293.67642	644.72174	1264.61902	329.19821	487.66977	1292.45996	351.26266	232.81432	1300.7865	391.11292	66.33898	1343.04724	358.19211	52.27816	1394.20605	537.36926	47.53664	1333.99255	206.76282	619.04614	1595.50659	185.34869	493.85016	1574.62061	39.01833	265.22263	1570.70825	-50.17943	99.20914	1526.49304	-99.15678	88.04448	1486.29199	89.83987	34.81876	1508.91431	202.88773	1689.08276	1423.96301	NaN	NaN	NaN	NaN	NaN	NaN	NaN	NaN	NaN	NaN	NaN	NaN	NaN	NaN	NaN	NaN	NaN	NaN	NaN	NaN	NaN
204	2.03	308.67313	1654.05103	1357.76025	315.33548	1644.45142	1489.45862	177.30652	1595.47815	1364.75525	185.02879	1591.23645	1494.2439	181.93842	1441.79199	1426.74219	140.52049	1113.67615	1441.68787	290.32236	1363.5116	1418.23474	325.84976	1186.78894	1413.21777	112.19218	1274.60254	1516.76648	220.12299	1394.15027	1261.11584	171.98839	1197.85486	1196.04688	141.77654	1089.3783	1190.05542	133.59546	938.24506	1171.25476	173.56647	815.16425	1211.88232	109.48119	821.29657	1179.01489	133.40807	733.6391	1178.61182	261.98132	1398.18188	1581.79688	244.80107	1197.27429	1670.53967	267.14459	1076.4823	1678.63184	298.82962	959.67706	1687.89783	368.3298	829.85449	1641.04663	322.71649	824.367	1689.59692	368.41101	753.21063	1682.81824	319.82816	955.83368	1330.36755	313.36389	954.08783	1549.49011	159.5874	981.50494	1353.86243	161.84236	981.25641	1522.08716	299.00696	645.65088	1263.3219	333.45361	488.15387	1290.82935	353.1532	233.05484	1300.21423	391.9191	66.34312	1342.77881	358.74023	52.36066	1393.75574	538.28906	46.39255	1334.65527	215.02637	619.46503	1594.17212	193.97066	494.19672	1573.67041	44.55759	267.62964	1570.71472	-47.66077	103.10378	1527.41064	-97.04649	93.08459	1487.3728	90.01329	34.77591	1508.84241	209.97334	1689.98743	1421.66504	NaN	NaN	NaN	NaN	NaN	NaN	NaN	NaN	NaN	NaN	NaN	NaN	NaN	NaN	NaN	NaN	NaN	NaN	NaN	NaN	NaN
